<svg viewBox="0 0 512 512" xmlns="http://www.w3.org/2000/svg" width="82px" height="82px"><g fill="#c3653c" stroke-linecap="round" stroke-linejoin="round" stroke-width="32"><path d="m448 341.37v-170.76a32 32 0 0 0 -15.89-27.61l-152-88.46a47.94 47.94 0 0 0 -48.24 0l-151.98 88.46a32 32 0 0 0 -15.89 27.61v170.76a32 32 0 0 0 15.89 27.63l152 88.46a48 48 0 0 0 48.24 0l152-88.46a32 32 0 0 0 15.87-27.63z"/><path d="m69 153.99 187 110 187-110"/><path d="m256 463.99v-200"/></g><ellipse cx="256" cy="152" rx="24" ry="16"/><ellipse cx="208" cy="296" rx="16" ry="24"/><ellipse cx="112" cy="328" rx="16" ry="24"/><ellipse cx="304" cy="296" rx="16" ry="24"/><ellipse cx="400" cy="240" rx="16" ry="24"/><ellipse cx="304" cy="384" rx="16" ry="24"/><ellipse cx="400" cy="328" rx="16" ry="24"/></svg>